<mxfile host="app.diagrams.net" modified="2021-04-16T13:10:47.560Z" agent="5.0 (Windows NT 10.0; Win64; x64) AppleWebKit/537.36 (KHTML, like Gecko) Chrome/88.0.4324.192 Safari/537.36 OPR/74.0.3911.218" etag="Oqfcn5FVPwXd15smyo_y" version="14.6.1" type="github">
  <diagram id="wFrr1tjlunAGImuz-Mqa" name="Page-1">
    <mxGraphModel dx="1865" dy="548" grid="1" gridSize="10" guides="1" tooltips="1" connect="1" arrows="1" fold="1" page="1" pageScale="1" pageWidth="827" pageHeight="1169" math="0" shadow="0">
      <root>
        <mxCell id="0" />
        <mxCell id="1" parent="0" />
        <mxCell id="ndUx4JUGOBmah5ysdqSA-77" value="" style="ellipse;whiteSpace=wrap;html=1;" vertex="1" parent="1">
          <mxGeometry x="630" y="410" width="110" height="40" as="geometry" />
        </mxCell>
        <mxCell id="ndUx4JUGOBmah5ysdqSA-95" style="edgeStyle=orthogonalEdgeStyle;rounded=0;orthogonalLoop=1;jettySize=auto;html=1;exitX=0.5;exitY=0;exitDx=0;exitDy=0;entryX=0.889;entryY=1;entryDx=0;entryDy=0;entryPerimeter=0;" edge="1" parent="1" source="ndUx4JUGOBmah5ysdqSA-76" target="ndUx4JUGOBmah5ysdqSA-2">
          <mxGeometry relative="1" as="geometry" />
        </mxCell>
        <mxCell id="ndUx4JUGOBmah5ysdqSA-76" value="" style="ellipse;whiteSpace=wrap;html=1;" vertex="1" parent="1">
          <mxGeometry x="755" y="410" width="110" height="40" as="geometry" />
        </mxCell>
        <mxCell id="ndUx4JUGOBmah5ysdqSA-75" value="" style="ellipse;whiteSpace=wrap;html=1;fillColor=#66FFFF;" vertex="1" parent="1">
          <mxGeometry x="880" y="390" width="110" height="40" as="geometry" />
        </mxCell>
        <mxCell id="ndUx4JUGOBmah5ysdqSA-93" style="edgeStyle=orthogonalEdgeStyle;rounded=0;orthogonalLoop=1;jettySize=auto;html=1;exitX=0;exitY=0.5;exitDx=0;exitDy=0;entryX=1;entryY=1;entryDx=0;entryDy=0;" edge="1" parent="1" source="ndUx4JUGOBmah5ysdqSA-74" target="ndUx4JUGOBmah5ysdqSA-2">
          <mxGeometry relative="1" as="geometry">
            <Array as="points">
              <mxPoint x="970" y="320" />
            </Array>
          </mxGeometry>
        </mxCell>
        <mxCell id="ndUx4JUGOBmah5ysdqSA-74" value="" style="ellipse;whiteSpace=wrap;html=1;" vertex="1" parent="1">
          <mxGeometry x="970" y="350" width="110" height="40" as="geometry" />
        </mxCell>
        <mxCell id="ndUx4JUGOBmah5ysdqSA-92" style="edgeStyle=orthogonalEdgeStyle;rounded=0;orthogonalLoop=1;jettySize=auto;html=1;exitX=0;exitY=0.5;exitDx=0;exitDy=0;entryX=1;entryY=0.75;entryDx=0;entryDy=0;" edge="1" parent="1" source="ndUx4JUGOBmah5ysdqSA-73" target="ndUx4JUGOBmah5ysdqSA-2">
          <mxGeometry relative="1" as="geometry" />
        </mxCell>
        <mxCell id="ndUx4JUGOBmah5ysdqSA-73" value="" style="ellipse;whiteSpace=wrap;html=1;" vertex="1" parent="1">
          <mxGeometry x="990" y="290" width="110" height="40" as="geometry" />
        </mxCell>
        <mxCell id="ndUx4JUGOBmah5ysdqSA-72" value="" style="ellipse;whiteSpace=wrap;html=1;fillColor=#B266FF;" vertex="1" parent="1">
          <mxGeometry x="990" y="230" width="110" height="40" as="geometry" />
        </mxCell>
        <mxCell id="ndUx4JUGOBmah5ysdqSA-90" style="edgeStyle=orthogonalEdgeStyle;rounded=0;orthogonalLoop=1;jettySize=auto;html=1;exitX=0;exitY=0.5;exitDx=0;exitDy=0;entryX=1;entryY=0.25;entryDx=0;entryDy=0;" edge="1" parent="1" source="ndUx4JUGOBmah5ysdqSA-71" target="ndUx4JUGOBmah5ysdqSA-2">
          <mxGeometry relative="1" as="geometry">
            <Array as="points">
              <mxPoint x="990" y="210" />
              <mxPoint x="810" y="210" />
              <mxPoint x="810" y="290" />
            </Array>
          </mxGeometry>
        </mxCell>
        <mxCell id="ndUx4JUGOBmah5ysdqSA-71" value="" style="ellipse;whiteSpace=wrap;html=1;" vertex="1" parent="1">
          <mxGeometry x="990" y="180" width="110" height="40" as="geometry" />
        </mxCell>
        <mxCell id="ndUx4JUGOBmah5ysdqSA-89" style="edgeStyle=orthogonalEdgeStyle;rounded=0;orthogonalLoop=1;jettySize=auto;html=1;exitX=0;exitY=0.5;exitDx=0;exitDy=0;entryX=0.952;entryY=-0.12;entryDx=0;entryDy=0;entryPerimeter=0;" edge="1" parent="1" source="ndUx4JUGOBmah5ysdqSA-70" target="ndUx4JUGOBmah5ysdqSA-2">
          <mxGeometry relative="1" as="geometry">
            <Array as="points">
              <mxPoint x="910" y="145" />
              <mxPoint x="910" y="200" />
              <mxPoint x="781" y="200" />
            </Array>
          </mxGeometry>
        </mxCell>
        <mxCell id="ndUx4JUGOBmah5ysdqSA-70" value="" style="ellipse;whiteSpace=wrap;html=1;" vertex="1" parent="1">
          <mxGeometry x="980" y="125" width="110" height="40" as="geometry" />
        </mxCell>
        <mxCell id="ndUx4JUGOBmah5ysdqSA-88" style="edgeStyle=orthogonalEdgeStyle;rounded=0;orthogonalLoop=1;jettySize=auto;html=1;exitX=0;exitY=0.5;exitDx=0;exitDy=0;entryX=0.841;entryY=0;entryDx=0;entryDy=0;entryPerimeter=0;" edge="1" parent="1" source="ndUx4JUGOBmah5ysdqSA-69" target="ndUx4JUGOBmah5ysdqSA-2">
          <mxGeometry relative="1" as="geometry">
            <Array as="points">
              <mxPoint x="900" y="85" />
              <mxPoint x="900" y="190" />
              <mxPoint x="761" y="190" />
            </Array>
          </mxGeometry>
        </mxCell>
        <mxCell id="ndUx4JUGOBmah5ysdqSA-69" value="" style="ellipse;whiteSpace=wrap;html=1;fillColor=#66FFFF;" vertex="1" parent="1">
          <mxGeometry x="980" y="65" width="110" height="40" as="geometry" />
        </mxCell>
        <mxCell id="ndUx4JUGOBmah5ysdqSA-87" style="edgeStyle=orthogonalEdgeStyle;rounded=0;orthogonalLoop=1;jettySize=auto;html=1;exitX=0.5;exitY=1;exitDx=0;exitDy=0;entryX=0.75;entryY=0;entryDx=0;entryDy=0;" edge="1" parent="1" source="ndUx4JUGOBmah5ysdqSA-68" target="ndUx4JUGOBmah5ysdqSA-2">
          <mxGeometry relative="1" as="geometry">
            <Array as="points">
              <mxPoint x="890" y="55" />
              <mxPoint x="890" y="180" />
              <mxPoint x="745" y="180" />
            </Array>
          </mxGeometry>
        </mxCell>
        <mxCell id="ndUx4JUGOBmah5ysdqSA-68" value="" style="ellipse;whiteSpace=wrap;html=1;" vertex="1" parent="1">
          <mxGeometry x="890" y="15" width="120" height="40" as="geometry" />
        </mxCell>
        <mxCell id="ndUx4JUGOBmah5ysdqSA-86" style="edgeStyle=orthogonalEdgeStyle;rounded=0;orthogonalLoop=1;jettySize=auto;html=1;exitX=0.5;exitY=1;exitDx=0;exitDy=0;entryX=0.579;entryY=-0.04;entryDx=0;entryDy=0;entryPerimeter=0;" edge="1" parent="1" source="ndUx4JUGOBmah5ysdqSA-17" target="ndUx4JUGOBmah5ysdqSA-2">
          <mxGeometry relative="1" as="geometry" />
        </mxCell>
        <mxCell id="ndUx4JUGOBmah5ysdqSA-17" value="" style="ellipse;whiteSpace=wrap;html=1;fillColor=#66FFFF;" vertex="1" parent="1">
          <mxGeometry x="750" y="15" width="120" height="35" as="geometry" />
        </mxCell>
        <mxCell id="ndUx4JUGOBmah5ysdqSA-85" style="edgeStyle=orthogonalEdgeStyle;rounded=0;orthogonalLoop=1;jettySize=auto;html=1;exitX=0.5;exitY=1;exitDx=0;exitDy=0;entryX=0.419;entryY=0.02;entryDx=0;entryDy=0;entryPerimeter=0;" edge="1" parent="1" source="ndUx4JUGOBmah5ysdqSA-64" target="ndUx4JUGOBmah5ysdqSA-2">
          <mxGeometry relative="1" as="geometry" />
        </mxCell>
        <mxCell id="ndUx4JUGOBmah5ysdqSA-64" value="" style="ellipse;whiteSpace=wrap;html=1;" vertex="1" parent="1">
          <mxGeometry x="630" y="15" width="110" height="40" as="geometry" />
        </mxCell>
        <mxCell id="ndUx4JUGOBmah5ysdqSA-67" value="" style="ellipse;whiteSpace=wrap;html=1;" vertex="1" parent="1">
          <mxGeometry x="500" y="55" width="110" height="35" as="geometry" />
        </mxCell>
        <mxCell id="ndUx4JUGOBmah5ysdqSA-141" style="edgeStyle=orthogonalEdgeStyle;rounded=0;orthogonalLoop=1;jettySize=auto;html=1;exitX=1;exitY=0.75;exitDx=0;exitDy=0;entryX=0;entryY=0.5;entryDx=0;entryDy=0;" edge="1" parent="1" source="ndUx4JUGOBmah5ysdqSA-1" target="ndUx4JUGOBmah5ysdqSA-139">
          <mxGeometry relative="1" as="geometry">
            <mxPoint x="250" y="300" as="targetPoint" />
          </mxGeometry>
        </mxCell>
        <mxCell id="ndUx4JUGOBmah5ysdqSA-1" value="" style="rounded=0;whiteSpace=wrap;html=1;" vertex="1" parent="1">
          <mxGeometry x="50" y="270" width="150" height="40" as="geometry" />
        </mxCell>
        <mxCell id="ndUx4JUGOBmah5ysdqSA-142" style="edgeStyle=orthogonalEdgeStyle;rounded=0;orthogonalLoop=1;jettySize=auto;html=1;exitX=0;exitY=0.5;exitDx=0;exitDy=0;entryX=1;entryY=0.5;entryDx=0;entryDy=0;" edge="1" parent="1" source="ndUx4JUGOBmah5ysdqSA-2" target="ndUx4JUGOBmah5ysdqSA-139">
          <mxGeometry relative="1" as="geometry">
            <Array as="points">
              <mxPoint x="610" y="300" />
            </Array>
          </mxGeometry>
        </mxCell>
        <mxCell id="ndUx4JUGOBmah5ysdqSA-2" value="" style="rounded=0;whiteSpace=wrap;html=1;" vertex="1" parent="1">
          <mxGeometry x="610" y="260" width="180" height="40" as="geometry" />
        </mxCell>
        <mxCell id="ndUx4JUGOBmah5ysdqSA-3" value="" style="rounded=0;whiteSpace=wrap;html=1;" vertex="1" parent="1">
          <mxGeometry x="310" y="630" width="180" height="40" as="geometry" />
        </mxCell>
        <mxCell id="ndUx4JUGOBmah5ysdqSA-45" style="edgeStyle=orthogonalEdgeStyle;rounded=0;orthogonalLoop=1;jettySize=auto;html=1;exitX=0.5;exitY=1;exitDx=0;exitDy=0;entryX=0.161;entryY=-0.05;entryDx=0;entryDy=0;entryPerimeter=0;" edge="1" parent="1" source="ndUx4JUGOBmah5ysdqSA-4" target="ndUx4JUGOBmah5ysdqSA-1">
          <mxGeometry relative="1" as="geometry">
            <Array as="points">
              <mxPoint x="-80" y="110" />
              <mxPoint x="-80" y="190" />
              <mxPoint x="74" y="190" />
            </Array>
          </mxGeometry>
        </mxCell>
        <mxCell id="ndUx4JUGOBmah5ysdqSA-4" value="" style="ellipse;whiteSpace=wrap;html=1;" vertex="1" parent="1">
          <mxGeometry x="-190" y="80" width="100" height="30" as="geometry" />
        </mxCell>
        <mxCell id="ndUx4JUGOBmah5ysdqSA-44" style="edgeStyle=orthogonalEdgeStyle;rounded=0;orthogonalLoop=1;jettySize=auto;html=1;exitX=0.5;exitY=1;exitDx=0;exitDy=0;entryX=0.25;entryY=0;entryDx=0;entryDy=0;" edge="1" parent="1" source="ndUx4JUGOBmah5ysdqSA-5" target="ndUx4JUGOBmah5ysdqSA-1">
          <mxGeometry relative="1" as="geometry">
            <Array as="points">
              <mxPoint x="88" y="130" />
              <mxPoint x="88" y="200" />
            </Array>
          </mxGeometry>
        </mxCell>
        <mxCell id="ndUx4JUGOBmah5ysdqSA-5" value="" style="ellipse;whiteSpace=wrap;html=1;fillColor=#66FFFF;" vertex="1" parent="1">
          <mxGeometry x="-60" y="100" width="110" height="30" as="geometry" />
        </mxCell>
        <mxCell id="ndUx4JUGOBmah5ysdqSA-43" style="edgeStyle=orthogonalEdgeStyle;rounded=0;orthogonalLoop=1;jettySize=auto;html=1;exitX=0.5;exitY=1;exitDx=0;exitDy=0;entryX=0.5;entryY=0;entryDx=0;entryDy=0;" edge="1" parent="1" source="ndUx4JUGOBmah5ysdqSA-6" target="ndUx4JUGOBmah5ysdqSA-1">
          <mxGeometry relative="1" as="geometry" />
        </mxCell>
        <mxCell id="ndUx4JUGOBmah5ysdqSA-6" value="" style="ellipse;whiteSpace=wrap;html=1;" vertex="1" parent="1">
          <mxGeometry x="70" y="60" width="110" height="30" as="geometry" />
        </mxCell>
        <mxCell id="ndUx4JUGOBmah5ysdqSA-7" value="" style="ellipse;whiteSpace=wrap;html=1;fillColor=#33FFFF;" vertex="1" parent="1">
          <mxGeometry x="200" y="50" width="100" height="40" as="geometry" />
        </mxCell>
        <mxCell id="ndUx4JUGOBmah5ysdqSA-41" style="edgeStyle=orthogonalEdgeStyle;rounded=0;orthogonalLoop=1;jettySize=auto;html=1;exitX=0;exitY=0.5;exitDx=0;exitDy=0;entryX=1;entryY=0;entryDx=0;entryDy=0;" edge="1" parent="1" source="ndUx4JUGOBmah5ysdqSA-8" target="ndUx4JUGOBmah5ysdqSA-1">
          <mxGeometry relative="1" as="geometry">
            <Array as="points">
              <mxPoint x="314" y="110" />
              <mxPoint x="230" y="110" />
              <mxPoint x="230" y="270" />
            </Array>
          </mxGeometry>
        </mxCell>
        <mxCell id="ndUx4JUGOBmah5ysdqSA-8" value="" style="ellipse;whiteSpace=wrap;html=1;" vertex="1" parent="1">
          <mxGeometry x="314" y="60" width="100" height="30" as="geometry" />
        </mxCell>
        <mxCell id="ndUx4JUGOBmah5ysdqSA-50" style="edgeStyle=orthogonalEdgeStyle;rounded=0;orthogonalLoop=1;jettySize=auto;html=1;exitX=0.5;exitY=0;exitDx=0;exitDy=0;entryX=0;entryY=0.75;entryDx=0;entryDy=0;" edge="1" parent="1" source="ndUx4JUGOBmah5ysdqSA-9" target="ndUx4JUGOBmah5ysdqSA-1">
          <mxGeometry relative="1" as="geometry">
            <Array as="points">
              <mxPoint x="-155" y="410" />
              <mxPoint x="50" y="410" />
            </Array>
          </mxGeometry>
        </mxCell>
        <mxCell id="ndUx4JUGOBmah5ysdqSA-9" value="" style="ellipse;whiteSpace=wrap;html=1;" vertex="1" parent="1">
          <mxGeometry x="-210" y="470" width="110" height="40" as="geometry" />
        </mxCell>
        <mxCell id="ndUx4JUGOBmah5ysdqSA-40" style="edgeStyle=orthogonalEdgeStyle;rounded=0;orthogonalLoop=1;jettySize=auto;html=1;exitX=0;exitY=0.5;exitDx=0;exitDy=0;entryX=1;entryY=0.25;entryDx=0;entryDy=0;" edge="1" parent="1" source="ndUx4JUGOBmah5ysdqSA-12" target="ndUx4JUGOBmah5ysdqSA-1">
          <mxGeometry relative="1" as="geometry" />
        </mxCell>
        <mxCell id="ndUx4JUGOBmah5ysdqSA-12" value="" style="ellipse;whiteSpace=wrap;html=1;" vertex="1" parent="1">
          <mxGeometry x="270" y="120" width="160" height="40" as="geometry" />
        </mxCell>
        <mxCell id="ndUx4JUGOBmah5ysdqSA-51" style="edgeStyle=orthogonalEdgeStyle;rounded=0;orthogonalLoop=1;jettySize=auto;html=1;exitX=0.5;exitY=0;exitDx=0;exitDy=0;entryX=0.188;entryY=1.01;entryDx=0;entryDy=0;entryPerimeter=0;" edge="1" parent="1" source="ndUx4JUGOBmah5ysdqSA-13" target="ndUx4JUGOBmah5ysdqSA-1">
          <mxGeometry relative="1" as="geometry">
            <Array as="points">
              <mxPoint x="70" y="460" />
              <mxPoint x="70" y="385" />
              <mxPoint x="78" y="385" />
            </Array>
          </mxGeometry>
        </mxCell>
        <mxCell id="ndUx4JUGOBmah5ysdqSA-13" value="" style="ellipse;whiteSpace=wrap;html=1;" vertex="1" parent="1">
          <mxGeometry x="-40" y="460" width="120" height="40" as="geometry" />
        </mxCell>
        <mxCell id="ndUx4JUGOBmah5ysdqSA-52" style="edgeStyle=orthogonalEdgeStyle;rounded=0;orthogonalLoop=1;jettySize=auto;html=1;entryX=0.679;entryY=1.03;entryDx=0;entryDy=0;entryPerimeter=0;" edge="1" parent="1" source="ndUx4JUGOBmah5ysdqSA-14" target="ndUx4JUGOBmah5ysdqSA-1">
          <mxGeometry relative="1" as="geometry" />
        </mxCell>
        <mxCell id="ndUx4JUGOBmah5ysdqSA-14" value="" style="ellipse;whiteSpace=wrap;html=1;" vertex="1" parent="1">
          <mxGeometry x="100" y="460" width="110" height="40" as="geometry" />
        </mxCell>
        <mxCell id="ndUx4JUGOBmah5ysdqSA-46" style="edgeStyle=orthogonalEdgeStyle;rounded=0;orthogonalLoop=1;jettySize=auto;html=1;exitX=1;exitY=0.5;exitDx=0;exitDy=0;entryX=0.081;entryY=-0.01;entryDx=0;entryDy=0;entryPerimeter=0;" edge="1" parent="1" source="ndUx4JUGOBmah5ysdqSA-15" target="ndUx4JUGOBmah5ysdqSA-1">
          <mxGeometry relative="1" as="geometry">
            <Array as="points">
              <mxPoint x="-130" y="200" />
              <mxPoint x="62" y="200" />
            </Array>
          </mxGeometry>
        </mxCell>
        <mxCell id="ndUx4JUGOBmah5ysdqSA-15" value="" style="ellipse;whiteSpace=wrap;html=1;" vertex="1" parent="1">
          <mxGeometry x="-250" y="150" width="120" height="40" as="geometry" />
        </mxCell>
        <mxCell id="ndUx4JUGOBmah5ysdqSA-47" style="edgeStyle=orthogonalEdgeStyle;rounded=0;orthogonalLoop=1;jettySize=auto;html=1;exitX=1;exitY=0.5;exitDx=0;exitDy=0;entryX=0;entryY=0;entryDx=0;entryDy=0;" edge="1" parent="1" source="ndUx4JUGOBmah5ysdqSA-16" target="ndUx4JUGOBmah5ysdqSA-1">
          <mxGeometry relative="1" as="geometry" />
        </mxCell>
        <mxCell id="ndUx4JUGOBmah5ysdqSA-16" value="" style="ellipse;whiteSpace=wrap;html=1;" vertex="1" parent="1">
          <mxGeometry x="-260" y="210" width="120" height="40" as="geometry" />
        </mxCell>
        <mxCell id="ndUx4JUGOBmah5ysdqSA-48" style="edgeStyle=orthogonalEdgeStyle;rounded=0;orthogonalLoop=1;jettySize=auto;html=1;exitX=1;exitY=0.5;exitDx=0;exitDy=0;entryX=0;entryY=0;entryDx=0;entryDy=0;" edge="1" parent="1" source="ndUx4JUGOBmah5ysdqSA-18" target="ndUx4JUGOBmah5ysdqSA-1">
          <mxGeometry relative="1" as="geometry">
            <Array as="points">
              <mxPoint x="-140" y="250" />
              <mxPoint x="50" y="250" />
            </Array>
          </mxGeometry>
        </mxCell>
        <mxCell id="ndUx4JUGOBmah5ysdqSA-18" value="" style="ellipse;whiteSpace=wrap;html=1;" vertex="1" parent="1">
          <mxGeometry x="-260" y="290" width="120" height="40" as="geometry" />
        </mxCell>
        <mxCell id="ndUx4JUGOBmah5ysdqSA-49" style="edgeStyle=orthogonalEdgeStyle;rounded=0;orthogonalLoop=1;jettySize=auto;html=1;exitX=1;exitY=0.5;exitDx=0;exitDy=0;entryX=0;entryY=0.25;entryDx=0;entryDy=0;" edge="1" parent="1" source="ndUx4JUGOBmah5ysdqSA-19" target="ndUx4JUGOBmah5ysdqSA-1">
          <mxGeometry relative="1" as="geometry" />
        </mxCell>
        <mxCell id="ndUx4JUGOBmah5ysdqSA-19" value="" style="ellipse;whiteSpace=wrap;html=1;" vertex="1" parent="1">
          <mxGeometry x="-260" y="350" width="120" height="40" as="geometry" />
        </mxCell>
        <mxCell id="ndUx4JUGOBmah5ysdqSA-39" style="edgeStyle=orthogonalEdgeStyle;rounded=0;orthogonalLoop=1;jettySize=auto;html=1;entryX=1;entryY=0.5;entryDx=0;entryDy=0;" edge="1" parent="1" source="ndUx4JUGOBmah5ysdqSA-20" target="ndUx4JUGOBmah5ysdqSA-1">
          <mxGeometry relative="1" as="geometry" />
        </mxCell>
        <mxCell id="ndUx4JUGOBmah5ysdqSA-20" value="" style="ellipse;whiteSpace=wrap;html=1;fillColor=#B266FF;" vertex="1" parent="1">
          <mxGeometry x="300" y="180" width="120" height="40" as="geometry" />
        </mxCell>
        <mxCell id="ndUx4JUGOBmah5ysdqSA-21" value="Nome" style="text;html=1;strokeColor=none;fillColor=none;align=center;verticalAlign=middle;whiteSpace=wrap;rounded=0;" vertex="1" parent="1">
          <mxGeometry x="-40" y="105" width="80" height="20" as="geometry" />
        </mxCell>
        <mxCell id="ndUx4JUGOBmah5ysdqSA-22" value="Gênero" style="text;html=1;strokeColor=none;fillColor=none;align=center;verticalAlign=middle;whiteSpace=wrap;rounded=0;" vertex="1" parent="1">
          <mxGeometry x="105" y="65" width="45" height="20" as="geometry" />
        </mxCell>
        <mxCell id="ndUx4JUGOBmah5ysdqSA-42" style="edgeStyle=orthogonalEdgeStyle;rounded=0;orthogonalLoop=1;jettySize=auto;html=1;entryX=0.956;entryY=-0.05;entryDx=0;entryDy=0;entryPerimeter=0;" edge="1" parent="1" source="ndUx4JUGOBmah5ysdqSA-23" target="ndUx4JUGOBmah5ysdqSA-1">
          <mxGeometry relative="1" as="geometry">
            <Array as="points">
              <mxPoint x="210" y="75" />
              <mxPoint x="210" y="268" />
            </Array>
          </mxGeometry>
        </mxCell>
        <mxCell id="ndUx4JUGOBmah5ysdqSA-23" value="CPF" style="text;html=1;strokeColor=none;fillColor=none;align=center;verticalAlign=middle;whiteSpace=wrap;rounded=0;" vertex="1" parent="1">
          <mxGeometry x="230" y="65" width="40" height="20" as="geometry" />
        </mxCell>
        <mxCell id="ndUx4JUGOBmah5ysdqSA-24" value="endereço" style="text;html=1;strokeColor=none;fillColor=none;align=center;verticalAlign=middle;whiteSpace=wrap;rounded=0;" vertex="1" parent="1">
          <mxGeometry x="-175" y="85" width="70" height="20" as="geometry" />
        </mxCell>
        <mxCell id="ndUx4JUGOBmah5ysdqSA-28" value="Telefone" style="text;html=1;strokeColor=none;fillColor=none;align=center;verticalAlign=middle;whiteSpace=wrap;rounded=0;" vertex="1" parent="1">
          <mxGeometry x="-220" y="160" width="60" height="20" as="geometry" />
        </mxCell>
        <mxCell id="ndUx4JUGOBmah5ysdqSA-29" value="Celular" style="text;html=1;strokeColor=none;fillColor=none;align=center;verticalAlign=middle;whiteSpace=wrap;rounded=0;" vertex="1" parent="1">
          <mxGeometry x="-225" y="220" width="50" height="20" as="geometry" />
        </mxCell>
        <mxCell id="ndUx4JUGOBmah5ysdqSA-30" value="Contato de Emergência" style="text;html=1;strokeColor=none;fillColor=none;align=center;verticalAlign=middle;whiteSpace=wrap;rounded=0;" vertex="1" parent="1">
          <mxGeometry x="279" y="130" width="150" height="20" as="geometry" />
        </mxCell>
        <mxCell id="ndUx4JUGOBmah5ysdqSA-31" value="Convênio" style="text;html=1;strokeColor=none;fillColor=none;align=center;verticalAlign=middle;whiteSpace=wrap;rounded=0;" vertex="1" parent="1">
          <mxGeometry x="320" y="190" width="80" height="20" as="geometry" />
        </mxCell>
        <mxCell id="ndUx4JUGOBmah5ysdqSA-32" value="Medicamentos" style="text;html=1;strokeColor=none;fillColor=none;align=center;verticalAlign=middle;whiteSpace=wrap;rounded=0;" vertex="1" parent="1">
          <mxGeometry x="-240" y="300" width="80" height="20" as="geometry" />
        </mxCell>
        <mxCell id="ndUx4JUGOBmah5ysdqSA-33" value="Alergia" style="text;html=1;strokeColor=none;fillColor=none;align=center;verticalAlign=middle;whiteSpace=wrap;rounded=0;" vertex="1" parent="1">
          <mxGeometry x="339" y="65" width="50" height="20" as="geometry" />
        </mxCell>
        <mxCell id="ndUx4JUGOBmah5ysdqSA-34" value="E-mail" style="text;html=1;strokeColor=none;fillColor=none;align=center;verticalAlign=middle;whiteSpace=wrap;rounded=0;" vertex="1" parent="1">
          <mxGeometry x="-190" y="480" width="50" height="20" as="geometry" />
        </mxCell>
        <mxCell id="ndUx4JUGOBmah5ysdqSA-35" value="Class. de Risco" style="text;html=1;strokeColor=none;fillColor=none;align=center;verticalAlign=middle;whiteSpace=wrap;rounded=0;" vertex="1" parent="1">
          <mxGeometry x="-240" y="360" width="90" height="20" as="geometry" />
        </mxCell>
        <mxCell id="ndUx4JUGOBmah5ysdqSA-37" value="Tipo Sangue" style="text;html=1;strokeColor=none;fillColor=none;align=center;verticalAlign=middle;whiteSpace=wrap;rounded=0;" vertex="1" parent="1">
          <mxGeometry x="-20" y="470" width="80" height="20" as="geometry" />
        </mxCell>
        <mxCell id="ndUx4JUGOBmah5ysdqSA-38" value="Data Nascimento" style="text;html=1;strokeColor=none;fillColor=none;align=center;verticalAlign=middle;whiteSpace=wrap;rounded=0;" vertex="1" parent="1">
          <mxGeometry x="95" y="470" width="120" height="20" as="geometry" />
        </mxCell>
        <mxCell id="ndUx4JUGOBmah5ysdqSA-53" value="Paciente" style="text;html=1;strokeColor=none;fillColor=none;align=center;verticalAlign=middle;whiteSpace=wrap;rounded=0;" vertex="1" parent="1">
          <mxGeometry x="62.5" y="280" width="130" height="20" as="geometry" />
        </mxCell>
        <mxCell id="ndUx4JUGOBmah5ysdqSA-56" value="Nome" style="text;html=1;strokeColor=none;fillColor=none;align=center;verticalAlign=middle;whiteSpace=wrap;rounded=0;" vertex="1" parent="1">
          <mxGeometry x="765" y="22.5" width="75" height="20" as="geometry" />
        </mxCell>
        <mxCell id="ndUx4JUGOBmah5ysdqSA-57" value="Gênero" style="text;html=1;strokeColor=none;fillColor=none;align=center;verticalAlign=middle;whiteSpace=wrap;rounded=0;" vertex="1" parent="1">
          <mxGeometry x="927.5" y="20" width="45" height="20" as="geometry" />
        </mxCell>
        <mxCell id="ndUx4JUGOBmah5ysdqSA-58" value="CPF" style="text;html=1;strokeColor=none;fillColor=none;align=center;verticalAlign=middle;whiteSpace=wrap;rounded=0;" vertex="1" parent="1">
          <mxGeometry x="1015" y="75" width="40" height="20" as="geometry" />
        </mxCell>
        <mxCell id="ndUx4JUGOBmah5ysdqSA-59" value="Telefone" style="text;html=1;strokeColor=none;fillColor=none;align=center;verticalAlign=middle;whiteSpace=wrap;rounded=0;" vertex="1" parent="1">
          <mxGeometry x="1015" y="190" width="60" height="20" as="geometry" />
        </mxCell>
        <mxCell id="ndUx4JUGOBmah5ysdqSA-60" value="Celular" style="text;html=1;strokeColor=none;fillColor=none;align=center;verticalAlign=middle;whiteSpace=wrap;rounded=0;" vertex="1" parent="1">
          <mxGeometry x="1010" y="140" width="50" height="20" as="geometry" />
        </mxCell>
        <mxCell id="ndUx4JUGOBmah5ysdqSA-91" style="edgeStyle=orthogonalEdgeStyle;rounded=0;orthogonalLoop=1;jettySize=auto;html=1;entryX=1;entryY=0.5;entryDx=0;entryDy=0;" edge="1" parent="1" source="ndUx4JUGOBmah5ysdqSA-61" target="ndUx4JUGOBmah5ysdqSA-2">
          <mxGeometry relative="1" as="geometry">
            <Array as="points">
              <mxPoint x="820" y="250" />
              <mxPoint x="820" y="300" />
            </Array>
          </mxGeometry>
        </mxCell>
        <mxCell id="ndUx4JUGOBmah5ysdqSA-61" value="Convênio" style="text;html=1;strokeColor=none;fillColor=none;align=center;verticalAlign=middle;whiteSpace=wrap;rounded=0;" vertex="1" parent="1">
          <mxGeometry x="995" y="240" width="80" height="20" as="geometry" />
        </mxCell>
        <mxCell id="ndUx4JUGOBmah5ysdqSA-84" style="edgeStyle=orthogonalEdgeStyle;rounded=0;orthogonalLoop=1;jettySize=auto;html=1;entryX=0;entryY=0.25;entryDx=0;entryDy=0;" edge="1" parent="1" source="ndUx4JUGOBmah5ysdqSA-62" target="ndUx4JUGOBmah5ysdqSA-2">
          <mxGeometry relative="1" as="geometry" />
        </mxCell>
        <mxCell id="ndUx4JUGOBmah5ysdqSA-62" value="endereço" style="text;html=1;strokeColor=none;fillColor=none;align=center;verticalAlign=middle;whiteSpace=wrap;rounded=0;" vertex="1" parent="1">
          <mxGeometry x="520" y="60" width="70" height="20" as="geometry" />
        </mxCell>
        <mxCell id="ndUx4JUGOBmah5ysdqSA-63" value="E-mail" style="text;html=1;strokeColor=none;fillColor=none;align=center;verticalAlign=middle;whiteSpace=wrap;rounded=0;" vertex="1" parent="1">
          <mxGeometry x="660" y="30" width="50" height="20" as="geometry" />
        </mxCell>
        <mxCell id="ndUx4JUGOBmah5ysdqSA-79" value="Especiaidade" style="text;html=1;strokeColor=none;fillColor=none;align=center;verticalAlign=middle;whiteSpace=wrap;rounded=0;" vertex="1" parent="1">
          <mxGeometry x="770" y="420" width="90" height="20" as="geometry" />
        </mxCell>
        <mxCell id="ndUx4JUGOBmah5ysdqSA-94" style="edgeStyle=orthogonalEdgeStyle;rounded=0;orthogonalLoop=1;jettySize=auto;html=1;entryX=0.957;entryY=1.1;entryDx=0;entryDy=0;entryPerimeter=0;" edge="1" parent="1" source="ndUx4JUGOBmah5ysdqSA-80" target="ndUx4JUGOBmah5ysdqSA-2">
          <mxGeometry relative="1" as="geometry">
            <Array as="points">
              <mxPoint x="935" y="340" />
              <mxPoint x="782" y="340" />
            </Array>
          </mxGeometry>
        </mxCell>
        <mxCell id="ndUx4JUGOBmah5ysdqSA-80" value="Registro(CRM)" style="text;html=1;strokeColor=none;fillColor=none;align=center;verticalAlign=middle;whiteSpace=wrap;rounded=0;" vertex="1" parent="1">
          <mxGeometry x="900" y="400" width="70" height="20" as="geometry" />
        </mxCell>
        <mxCell id="ndUx4JUGOBmah5ysdqSA-81" value="Hora Atendimento" style="text;html=1;strokeColor=none;fillColor=none;align=center;verticalAlign=middle;whiteSpace=wrap;rounded=0;" vertex="1" parent="1">
          <mxGeometry x="1010" y="300" width="80" height="20" as="geometry" />
        </mxCell>
        <mxCell id="ndUx4JUGOBmah5ysdqSA-96" style="edgeStyle=orthogonalEdgeStyle;rounded=0;orthogonalLoop=1;jettySize=auto;html=1;entryX=0.414;entryY=1.12;entryDx=0;entryDy=0;entryPerimeter=0;" edge="1" parent="1" source="ndUx4JUGOBmah5ysdqSA-82" target="ndUx4JUGOBmah5ysdqSA-2">
          <mxGeometry relative="1" as="geometry" />
        </mxCell>
        <mxCell id="ndUx4JUGOBmah5ysdqSA-82" value="Data Nascimento" style="text;html=1;strokeColor=none;fillColor=none;align=center;verticalAlign=middle;whiteSpace=wrap;rounded=0;" vertex="1" parent="1">
          <mxGeometry x="625" y="420" width="120" height="20" as="geometry" />
        </mxCell>
        <mxCell id="ndUx4JUGOBmah5ysdqSA-83" value="Tipo de Atendimento&amp;nbsp;" style="text;html=1;strokeColor=none;fillColor=none;align=center;verticalAlign=middle;whiteSpace=wrap;rounded=0;" vertex="1" parent="1">
          <mxGeometry x="990" y="360" width="70" height="20" as="geometry" />
        </mxCell>
        <mxCell id="ndUx4JUGOBmah5ysdqSA-97" value="Médico" style="text;html=1;strokeColor=none;fillColor=none;align=center;verticalAlign=middle;whiteSpace=wrap;rounded=0;" vertex="1" parent="1">
          <mxGeometry x="655" y="270" width="90" height="20" as="geometry" />
        </mxCell>
        <mxCell id="ndUx4JUGOBmah5ysdqSA-98" value="Receita&amp;nbsp;" style="text;html=1;strokeColor=none;fillColor=none;align=center;verticalAlign=middle;whiteSpace=wrap;rounded=0;" vertex="1" parent="1">
          <mxGeometry x="355" y="640" width="90" height="20" as="geometry" />
        </mxCell>
        <mxCell id="ndUx4JUGOBmah5ysdqSA-112" style="edgeStyle=orthogonalEdgeStyle;rounded=0;orthogonalLoop=1;jettySize=auto;html=1;exitX=1;exitY=0.5;exitDx=0;exitDy=0;entryX=0;entryY=0.25;entryDx=0;entryDy=0;" edge="1" parent="1" source="ndUx4JUGOBmah5ysdqSA-99" target="ndUx4JUGOBmah5ysdqSA-3">
          <mxGeometry relative="1" as="geometry">
            <Array as="points">
              <mxPoint x="110" y="640" />
            </Array>
          </mxGeometry>
        </mxCell>
        <mxCell id="ndUx4JUGOBmah5ysdqSA-99" value="" style="ellipse;whiteSpace=wrap;html=1;" vertex="1" parent="1">
          <mxGeometry y="660" width="110" height="35" as="geometry" />
        </mxCell>
        <mxCell id="ndUx4JUGOBmah5ysdqSA-114" style="edgeStyle=orthogonalEdgeStyle;rounded=0;orthogonalLoop=1;jettySize=auto;html=1;exitX=1;exitY=0.5;exitDx=0;exitDy=0;entryX=0;entryY=0.5;entryDx=0;entryDy=0;" edge="1" parent="1" source="ndUx4JUGOBmah5ysdqSA-100" target="ndUx4JUGOBmah5ysdqSA-3">
          <mxGeometry relative="1" as="geometry">
            <Array as="points">
              <mxPoint x="130" y="680" />
              <mxPoint x="220" y="680" />
              <mxPoint x="220" y="650" />
            </Array>
          </mxGeometry>
        </mxCell>
        <mxCell id="ndUx4JUGOBmah5ysdqSA-100" value="" style="ellipse;whiteSpace=wrap;html=1;" vertex="1" parent="1">
          <mxGeometry x="20" y="720" width="110" height="35" as="geometry" />
        </mxCell>
        <mxCell id="ndUx4JUGOBmah5ysdqSA-115" style="edgeStyle=orthogonalEdgeStyle;rounded=0;orthogonalLoop=1;jettySize=auto;html=1;exitX=1;exitY=0.5;exitDx=0;exitDy=0;entryX=0;entryY=0.75;entryDx=0;entryDy=0;" edge="1" parent="1" source="ndUx4JUGOBmah5ysdqSA-101" target="ndUx4JUGOBmah5ysdqSA-3">
          <mxGeometry relative="1" as="geometry">
            <Array as="points">
              <mxPoint x="230" y="660" />
            </Array>
          </mxGeometry>
        </mxCell>
        <mxCell id="ndUx4JUGOBmah5ysdqSA-101" value="" style="ellipse;whiteSpace=wrap;html=1;fillColor=#B266FF;" vertex="1" parent="1">
          <mxGeometry x="120" y="795" width="110" height="35" as="geometry" />
        </mxCell>
        <mxCell id="ndUx4JUGOBmah5ysdqSA-116" style="edgeStyle=orthogonalEdgeStyle;rounded=0;orthogonalLoop=1;jettySize=auto;html=1;exitX=0.5;exitY=0;exitDx=0;exitDy=0;entryX=0;entryY=1;entryDx=0;entryDy=0;" edge="1" parent="1" source="ndUx4JUGOBmah5ysdqSA-102" target="ndUx4JUGOBmah5ysdqSA-3">
          <mxGeometry relative="1" as="geometry">
            <Array as="points">
              <mxPoint x="250" y="880" />
              <mxPoint x="250" y="670" />
            </Array>
          </mxGeometry>
        </mxCell>
        <mxCell id="ndUx4JUGOBmah5ysdqSA-102" value="" style="ellipse;whiteSpace=wrap;html=1;fillColor=#B266FF;" vertex="1" parent="1">
          <mxGeometry x="169" y="880" width="110" height="35" as="geometry" />
        </mxCell>
        <mxCell id="ndUx4JUGOBmah5ysdqSA-117" style="edgeStyle=orthogonalEdgeStyle;rounded=0;orthogonalLoop=1;jettySize=auto;html=1;exitX=0.5;exitY=0;exitDx=0;exitDy=0;entryX=0.5;entryY=1;entryDx=0;entryDy=0;" edge="1" parent="1" source="ndUx4JUGOBmah5ysdqSA-103" target="ndUx4JUGOBmah5ysdqSA-3">
          <mxGeometry relative="1" as="geometry" />
        </mxCell>
        <mxCell id="ndUx4JUGOBmah5ysdqSA-103" value="" style="ellipse;whiteSpace=wrap;html=1;fillColor=#9933FF;" vertex="1" parent="1">
          <mxGeometry x="345" y="890" width="110" height="35" as="geometry" />
        </mxCell>
        <mxCell id="ndUx4JUGOBmah5ysdqSA-118" style="edgeStyle=orthogonalEdgeStyle;rounded=0;orthogonalLoop=1;jettySize=auto;html=1;exitX=0.5;exitY=0;exitDx=0;exitDy=0;entryX=0.557;entryY=1.07;entryDx=0;entryDy=0;entryPerimeter=0;" edge="1" parent="1" source="ndUx4JUGOBmah5ysdqSA-104" target="ndUx4JUGOBmah5ysdqSA-3">
          <mxGeometry relative="1" as="geometry">
            <Array as="points">
              <mxPoint x="570" y="860" />
              <mxPoint x="410" y="860" />
            </Array>
          </mxGeometry>
        </mxCell>
        <mxCell id="ndUx4JUGOBmah5ysdqSA-104" value="" style="ellipse;whiteSpace=wrap;html=1;fillColor=#B266FF;" vertex="1" parent="1">
          <mxGeometry x="515" y="890" width="110" height="35" as="geometry" />
        </mxCell>
        <mxCell id="ndUx4JUGOBmah5ysdqSA-119" style="edgeStyle=orthogonalEdgeStyle;rounded=0;orthogonalLoop=1;jettySize=auto;html=1;exitX=0.5;exitY=0;exitDx=0;exitDy=0;entryX=0.611;entryY=1;entryDx=0;entryDy=0;entryPerimeter=0;" edge="1" parent="1" source="ndUx4JUGOBmah5ysdqSA-105" target="ndUx4JUGOBmah5ysdqSA-3">
          <mxGeometry relative="1" as="geometry">
            <Array as="points">
              <mxPoint x="710" y="840" />
              <mxPoint x="420" y="840" />
            </Array>
          </mxGeometry>
        </mxCell>
        <mxCell id="ndUx4JUGOBmah5ysdqSA-105" value="" style="ellipse;whiteSpace=wrap;html=1;" vertex="1" parent="1">
          <mxGeometry x="655" y="880" width="110" height="35" as="geometry" />
        </mxCell>
        <mxCell id="ndUx4JUGOBmah5ysdqSA-125" style="edgeStyle=orthogonalEdgeStyle;rounded=0;orthogonalLoop=1;jettySize=auto;html=1;exitX=0.5;exitY=1;exitDx=0;exitDy=0;" edge="1" parent="1" source="ndUx4JUGOBmah5ysdqSA-106">
          <mxGeometry relative="1" as="geometry">
            <mxPoint x="490" y="630" as="targetPoint" />
            <Array as="points">
              <mxPoint x="595" y="630" />
            </Array>
          </mxGeometry>
        </mxCell>
        <mxCell id="ndUx4JUGOBmah5ysdqSA-106" value="" style="ellipse;whiteSpace=wrap;html=1;" vertex="1" parent="1">
          <mxGeometry x="540" y="520" width="110" height="35" as="geometry" />
        </mxCell>
        <mxCell id="ndUx4JUGOBmah5ysdqSA-120" style="edgeStyle=orthogonalEdgeStyle;rounded=0;orthogonalLoop=1;jettySize=auto;html=1;exitX=0;exitY=0.5;exitDx=0;exitDy=0;entryX=0.659;entryY=1.07;entryDx=0;entryDy=0;entryPerimeter=0;" edge="1" parent="1" source="ndUx4JUGOBmah5ysdqSA-107" target="ndUx4JUGOBmah5ysdqSA-3">
          <mxGeometry relative="1" as="geometry" />
        </mxCell>
        <mxCell id="ndUx4JUGOBmah5ysdqSA-107" value="" style="ellipse;whiteSpace=wrap;html=1;" vertex="1" parent="1">
          <mxGeometry x="720" y="780" width="110" height="35" as="geometry" />
        </mxCell>
        <mxCell id="ndUx4JUGOBmah5ysdqSA-121" style="edgeStyle=orthogonalEdgeStyle;rounded=0;orthogonalLoop=1;jettySize=auto;html=1;exitX=0;exitY=0.5;exitDx=0;exitDy=0;entryX=0.712;entryY=1.09;entryDx=0;entryDy=0;entryPerimeter=0;" edge="1" parent="1" source="ndUx4JUGOBmah5ysdqSA-108" target="ndUx4JUGOBmah5ysdqSA-3">
          <mxGeometry relative="1" as="geometry">
            <Array as="points">
              <mxPoint x="730" y="770" />
              <mxPoint x="438" y="770" />
            </Array>
          </mxGeometry>
        </mxCell>
        <mxCell id="ndUx4JUGOBmah5ysdqSA-108" value="" style="ellipse;whiteSpace=wrap;html=1;" vertex="1" parent="1">
          <mxGeometry x="730" y="720" width="110" height="35" as="geometry" />
        </mxCell>
        <mxCell id="ndUx4JUGOBmah5ysdqSA-122" style="edgeStyle=orthogonalEdgeStyle;rounded=0;orthogonalLoop=1;jettySize=auto;html=1;exitX=0;exitY=0.5;exitDx=0;exitDy=0;entryX=1;entryY=1;entryDx=0;entryDy=0;" edge="1" parent="1" source="ndUx4JUGOBmah5ysdqSA-109" target="ndUx4JUGOBmah5ysdqSA-3">
          <mxGeometry relative="1" as="geometry" />
        </mxCell>
        <mxCell id="ndUx4JUGOBmah5ysdqSA-109" value="" style="ellipse;whiteSpace=wrap;html=1;" vertex="1" parent="1">
          <mxGeometry x="740" y="630" width="110" height="35" as="geometry" />
        </mxCell>
        <mxCell id="ndUx4JUGOBmah5ysdqSA-123" style="edgeStyle=orthogonalEdgeStyle;rounded=0;orthogonalLoop=1;jettySize=auto;html=1;exitX=0;exitY=0.5;exitDx=0;exitDy=0;entryX=1;entryY=0.75;entryDx=0;entryDy=0;" edge="1" parent="1" source="ndUx4JUGOBmah5ysdqSA-110" target="ndUx4JUGOBmah5ysdqSA-3">
          <mxGeometry relative="1" as="geometry">
            <Array as="points">
              <mxPoint x="750" y="640" />
              <mxPoint x="620" y="640" />
              <mxPoint x="620" y="650" />
              <mxPoint x="490" y="650" />
            </Array>
          </mxGeometry>
        </mxCell>
        <mxCell id="ndUx4JUGOBmah5ysdqSA-110" value="" style="ellipse;whiteSpace=wrap;html=1;" vertex="1" parent="1">
          <mxGeometry x="750" y="565" width="110" height="35" as="geometry" />
        </mxCell>
        <mxCell id="ndUx4JUGOBmah5ysdqSA-124" style="edgeStyle=orthogonalEdgeStyle;rounded=0;orthogonalLoop=1;jettySize=auto;html=1;exitX=0.5;exitY=1;exitDx=0;exitDy=0;entryX=1;entryY=0;entryDx=0;entryDy=0;" edge="1" parent="1" source="ndUx4JUGOBmah5ysdqSA-111" target="ndUx4JUGOBmah5ysdqSA-3">
          <mxGeometry relative="1" as="geometry">
            <Array as="points">
              <mxPoint x="735" y="640" />
              <mxPoint x="490" y="640" />
            </Array>
          </mxGeometry>
        </mxCell>
        <mxCell id="ndUx4JUGOBmah5ysdqSA-111" value="" style="ellipse;whiteSpace=wrap;html=1;" vertex="1" parent="1">
          <mxGeometry x="680" y="520" width="110" height="35" as="geometry" />
        </mxCell>
        <mxCell id="ndUx4JUGOBmah5ysdqSA-126" value="Receituário" style="text;html=1;strokeColor=none;fillColor=none;align=center;verticalAlign=middle;whiteSpace=wrap;rounded=0;" vertex="1" parent="1">
          <mxGeometry x="10" y="667.5" width="90" height="20" as="geometry" />
        </mxCell>
        <mxCell id="ndUx4JUGOBmah5ysdqSA-127" value="Data" style="text;html=1;strokeColor=none;fillColor=none;align=center;verticalAlign=middle;whiteSpace=wrap;rounded=0;" vertex="1" parent="1">
          <mxGeometry x="60" y="727.5" width="40" height="20" as="geometry" />
        </mxCell>
        <mxCell id="ndUx4JUGOBmah5ysdqSA-128" value="Nome Paciente" style="text;html=1;strokeColor=none;fillColor=none;align=center;verticalAlign=middle;whiteSpace=wrap;rounded=0;" vertex="1" parent="1">
          <mxGeometry x="130" y="802.5" width="70" height="20" as="geometry" />
        </mxCell>
        <mxCell id="ndUx4JUGOBmah5ysdqSA-129" value="Nome Médico" style="text;html=1;strokeColor=none;fillColor=none;align=center;verticalAlign=middle;whiteSpace=wrap;rounded=0;" vertex="1" parent="1">
          <mxGeometry x="180" y="887.5" width="80" height="20" as="geometry" />
        </mxCell>
        <mxCell id="ndUx4JUGOBmah5ysdqSA-130" value="CRM" style="text;html=1;strokeColor=none;fillColor=none;align=center;verticalAlign=middle;whiteSpace=wrap;rounded=0;" vertex="1" parent="1">
          <mxGeometry x="374" y="897.5" width="40" height="20" as="geometry" />
        </mxCell>
        <mxCell id="ndUx4JUGOBmah5ysdqSA-131" value="CPF" style="text;html=1;strokeColor=none;fillColor=none;align=center;verticalAlign=middle;whiteSpace=wrap;rounded=0;" vertex="1" parent="1">
          <mxGeometry x="550" y="897.5" width="40" height="27.5" as="geometry" />
        </mxCell>
        <mxCell id="ndUx4JUGOBmah5ysdqSA-132" value="Medicamentos&amp;nbsp;" style="text;html=1;strokeColor=none;fillColor=none;align=center;verticalAlign=middle;whiteSpace=wrap;rounded=0;" vertex="1" parent="1">
          <mxGeometry x="685" y="887.5" width="60" height="20" as="geometry" />
        </mxCell>
        <mxCell id="ndUx4JUGOBmah5ysdqSA-133" value="Tarja do Medicamento" style="text;html=1;strokeColor=none;fillColor=none;align=center;verticalAlign=middle;whiteSpace=wrap;rounded=0;" vertex="1" parent="1">
          <mxGeometry x="717" y="787.5" width="110" height="20" as="geometry" />
        </mxCell>
        <mxCell id="ndUx4JUGOBmah5ysdqSA-134" value="Quantidade medicamento" style="text;html=1;strokeColor=none;fillColor=none;align=center;verticalAlign=middle;whiteSpace=wrap;rounded=0;" vertex="1" parent="1">
          <mxGeometry x="739" y="727.5" width="88" height="20" as="geometry" />
        </mxCell>
        <mxCell id="ndUx4JUGOBmah5ysdqSA-135" value="CID" style="text;html=1;strokeColor=none;fillColor=none;align=center;verticalAlign=middle;whiteSpace=wrap;rounded=0;" vertex="1" parent="1">
          <mxGeometry x="775" y="637.5" width="40" height="20" as="geometry" />
        </mxCell>
        <mxCell id="ndUx4JUGOBmah5ysdqSA-136" value="Data Nascimento&amp;nbsp;" style="text;html=1;strokeColor=none;fillColor=none;align=center;verticalAlign=middle;whiteSpace=wrap;rounded=0;" vertex="1" parent="1">
          <mxGeometry x="760" y="572.5" width="90" height="20" as="geometry" />
        </mxCell>
        <mxCell id="ndUx4JUGOBmah5ysdqSA-137" value="Intervalos de dose" style="text;html=1;strokeColor=none;fillColor=none;align=center;verticalAlign=middle;whiteSpace=wrap;rounded=0;" vertex="1" parent="1">
          <mxGeometry x="690" y="527.5" width="90" height="20" as="geometry" />
        </mxCell>
        <mxCell id="ndUx4JUGOBmah5ysdqSA-138" value="Pedidos de Exames" style="text;html=1;strokeColor=none;fillColor=none;align=center;verticalAlign=middle;whiteSpace=wrap;rounded=0;" vertex="1" parent="1">
          <mxGeometry x="560" y="527.5" width="70" height="20" as="geometry" />
        </mxCell>
        <mxCell id="ndUx4JUGOBmah5ysdqSA-150" style="edgeStyle=orthogonalEdgeStyle;rounded=0;orthogonalLoop=1;jettySize=auto;html=1;exitX=0.5;exitY=1;exitDx=0;exitDy=0;entryX=0.5;entryY=0;entryDx=0;entryDy=0;" edge="1" parent="1" source="ndUx4JUGOBmah5ysdqSA-139" target="ndUx4JUGOBmah5ysdqSA-144">
          <mxGeometry relative="1" as="geometry" />
        </mxCell>
        <mxCell id="ndUx4JUGOBmah5ysdqSA-139" value="" style="rhombus;whiteSpace=wrap;html=1;" vertex="1" parent="1">
          <mxGeometry x="350" y="260" width="140" height="80" as="geometry" />
        </mxCell>
        <mxCell id="ndUx4JUGOBmah5ysdqSA-143" value="Consulta" style="text;html=1;strokeColor=none;fillColor=none;align=center;verticalAlign=middle;whiteSpace=wrap;rounded=0;" vertex="1" parent="1">
          <mxGeometry x="374" y="290" width="80" height="20" as="geometry" />
        </mxCell>
        <mxCell id="ndUx4JUGOBmah5ysdqSA-151" style="edgeStyle=orthogonalEdgeStyle;rounded=0;orthogonalLoop=1;jettySize=auto;html=1;exitX=0.5;exitY=1;exitDx=0;exitDy=0;entryX=0.614;entryY=-0.05;entryDx=0;entryDy=0;entryPerimeter=0;" edge="1" parent="1" source="ndUx4JUGOBmah5ysdqSA-144" target="ndUx4JUGOBmah5ysdqSA-3">
          <mxGeometry relative="1" as="geometry" />
        </mxCell>
        <mxCell id="ndUx4JUGOBmah5ysdqSA-144" value="" style="rhombus;whiteSpace=wrap;html=1;" vertex="1" parent="1">
          <mxGeometry x="362.5" y="420" width="115" height="80" as="geometry" />
        </mxCell>
        <mxCell id="ndUx4JUGOBmah5ysdqSA-147" value="Gera" style="text;html=1;strokeColor=none;fillColor=none;align=center;verticalAlign=middle;whiteSpace=wrap;rounded=0;" vertex="1" parent="1">
          <mxGeometry x="400" y="450" width="40" height="20" as="geometry" />
        </mxCell>
        <mxCell id="ndUx4JUGOBmah5ysdqSA-153" value="" style="whiteSpace=wrap;html=1;aspect=fixed;fillColor=#FFFFFF;" vertex="1" parent="1">
          <mxGeometry x="1290" y="85" width="155" height="155" as="geometry" />
        </mxCell>
        <mxCell id="ndUx4JUGOBmah5ysdqSA-155" value="PK" style="text;html=1;strokeColor=none;fillColor=#66FFFF;align=center;verticalAlign=middle;whiteSpace=wrap;rounded=0;" vertex="1" parent="1">
          <mxGeometry x="1300" y="120" width="70" height="20" as="geometry" />
        </mxCell>
        <mxCell id="ndUx4JUGOBmah5ysdqSA-156" value="FK" style="text;html=1;strokeColor=none;fillColor=#9933FF;align=center;verticalAlign=middle;whiteSpace=wrap;rounded=0;" vertex="1" parent="1">
          <mxGeometry x="1300" y="165" width="70" height="20" as="geometry" />
        </mxCell>
      </root>
    </mxGraphModel>
  </diagram>
</mxfile>
